<?xml version="1.0" encoding="UTF-8"?><svg id="Capa_1" xmlns="http://www.w3.org/2000/svg" viewBox="0 0 593.44 577.48"><defs><style>.cls-1{fill:#f95959;}</style></defs><g><path class="cls-1" d="M0,511.84c0-8.38,13.49-8.69,13.49,0v58.34c0,8.48-13.49,8.69-13.49,0v-58.34Z"/><path class="cls-1" d="M33.11,576.42c-3.37,0-7.05-1.84-7.05-6.34v-58.04c0-3.68,3.68-6.34,7.05-6.34h23.4c46.7,0,45.67,70.71,.92,70.71h-24.32Zm6.44-58.24v45.78h16.96c27.59,0,28.82-45.78,0-45.78h-16.96Z"/><path class="cls-1" d="M106.88,576.42c-3.58,0-6.34-2.76-6.34-6.34v-58.04c0-3.68,2.76-6.34,6.34-6.34h36.68c9.4,0,9.2,13.28,0,13.28h-29.43v15.33h25.75c9.09,0,9.09,13.39,0,13.39h-25.75v15.33h31.17c9.3,0,10.01,13.39,0,13.39h-38.42Z"/><path class="cls-1" d="M159.51,576.42c-3.27-1.84-5.31-5.52-3.27-9.81l29.33-57.32c2.76-5.42,10.12-5.62,12.67,0l28.81,57.32c4.19,7.97-8.17,14.31-11.85,6.34l-4.5-8.99h-37.7l-4.39,8.99c-1.64,3.47-5.42,4.19-9.09,3.47Zm43.94-25.95l-11.55-25.24-12.57,25.24h24.12Z"/><path class="cls-1" d="M233.59,521.79c2.26-19.06,31.05-22.5,44.61-12.08,6.68,5.4-.39,13.95-6.29,9.63-7.27-4.62-23.78-6.78-25.84,3.44-2.65,16.11,40.09,6.88,39.4,33.01-.69,24.96-36.85,25.55-50.4,14.34-3.24-2.65-3.14-6.98-1.38-9.63,2.55-2.55,5.4-3.44,8.74-.69,8.06,5.5,28.79,9.63,30.26-4.32-1.28-14.54-42.15-5.8-39.11-33.7Z"/><path class="cls-1" d="M301.85,576.42c-3.68,0-6.23-2.76-6.23-6.34v-58.04c0-3.68,2.56-6.34,6.23-6.34h28.71c13.39,0,20.64,9.09,20.64,19.52,0,4.6-1.33,9.09-5.62,12.87,8.07,3.17,11.65,9.4,11.65,16.96,0,11.75-7.97,21.36-23.3,21.36h-32.09Zm28.71-58.24h-21.56v15.22h21.56c4.39,0,7.15-2.76,7.15-8.17,0-3.37-2.76-7.05-7.15-7.05Zm-21.56,45.78h24.93c11.85,0,11.85-18.09,0-18.09h-24.93v18.09Z"/><path class="cls-1" d="M402.26,577.44c-18.68,.81-38.07-11.61-38.07-36.36s19.39-37.06,38.07-37.06c17.67,.91,36.15,13.13,36.15,37.06s-18.48,36.36-36.15,36.36Zm-1.11-60.29c-11.31,0-23.63,7.98-23.63,23.94s12.32,23.94,23.63,23.94,24.04-8.08,24.04-23.94-12.42-23.94-24.04-23.94Z"/><path class="cls-1" d="M472.23,530.24l17.78-22.28c5.31-6.95,15.63,1.94,9.81,8.58-6.13,7.26-12.57,15.12-18.7,23.19l20.85,25.95c5.62,7.66-5.62,15.02-11.14,7.46l-18.8-24.11-18.49,24.63c-5.21,7.46-16.76-.92-10.93-7.87l20.54-26.06c-6.44-8.07-12.67-15.94-18.9-23.19-6.44-7.66,5.52-15.53,10.22-8.38l17.78,22.07Z"/><g><path class="cls-1" d="M522.81,535.84c-.7,2.43-2.3,3.84-4.35,3.84-2.56,0-3.96-1.85-3.13-4.99l6.07-22.43h-.89c-1.41-.19-2.94-1.28-2.94-3.32,0-1.92,1.47-3.32,3.26-3.32h2.36l.64-2.75c1.92-7.16,6.33-10.48,12.85-10.48,1.28,0,2.68,.19,3.64,.45,1.53,.32,2.62,1.34,2.62,3.07,0,2.43-1.79,3.84-3.58,3.45-.83-.26-1.6-.38-2.49-.38-2.81,0-4.67,1.47-5.56,4.73l-.51,1.92h5.43c1.85,0,3.26,1.41,3.26,3.32s-1.41,3.32-3.26,3.32h-7.09l-6.33,23.58Z"/><path class="cls-1" d="M562.95,520.63c.26-1.09,.45-2.43,.45-3.39,0-3.39-1.98-5.31-5.5-5.31-4.28,0-7.67,3.45-9.01,8.44l-4.15,15.47c-.64,2.43-2.24,3.84-4.28,3.84-2.56,0-3.96-1.85-3.13-4.99l6.84-25.57c.64-2.49,2.24-3.9,4.41-3.9,2.3,0,3.52,1.53,3.45,3.32l-.38,1.34c2.68-2.68,5.62-4.99,9.91-4.99,4.99,0,8.05,2.94,9.2,6.78,3-4.03,7.22-6.78,12.66-6.78,6.07,0,10.03,3.96,10.03,10.1,0,1.79-.58,3.96-1.09,5.94l-3.96,14.89c-.64,2.43-2.24,3.84-4.28,3.84-2.62,0-3.96-1.85-3.13-4.99l3.77-14.06c.26-1.09,.45-2.43,.45-3.39,0-3.39-1.98-5.31-5.5-5.31-4.22,0-7.67,3.45-8.95,8.44l-4.15,15.47c-.64,2.43-2.24,3.84-4.35,3.84-2.56,0-3.9-1.85-3.07-4.99l3.77-14.06Z"/><circle class="cls-1" cx="501.92" cy="535.19" r="4.49"/></g></g><path class="cls-1" d="M442.85,98.64c-12.31,.26-15.65,11.22-15.65,15.53v185.81c0,2.39-2.35,4.65-4.87,4.7-3.2,.06-5.07-2.73-5.07-4.76,0,0,.04-155.96-.05-162.01-.19-12.93-10.73-10.7-10.99-24.19l.25-41.17c0-13.95-12.27-25.51-25.18-25.51-15.8,0-25.82,12.8-26.03,25.67v64.99c0,7.81-10.78,14.92-10.78,23.34l.02,184.49c0,2.03-2.83,4.15-4.86,4.15s-5.1-2.04-5.1-4.07c0,0,.14-152.71,.09-159.51-.09-10.89-10.87-13.53-10.87-26.3V22.85C323.61,11.93,313.15,.08,300.29,0c-14.2-.09-25.06,10.28-25.06,24.23l.03,168.82c0,7.75-9.84,11.97-9.84,20.39v174.49c0,3.74-3.1,8.56-9.53,8.61-5.73,.04-8.44-4.71-8.44-8.45,0,0,0-187.69,0-191.08,0-6.88-3.94-7.87-3.94-15.37,0-37.64,0-150.56,0-150.56,0-13.95-10.7-25.27-24.65-25.27-15.2,0-25.14,12.37-25.14,23.74,0,0,0,122.04,0,128.82,0,6.88-4.03,6.88-4.03,13.22v179.07c0,6.68-3.56,11.92-11.46,11.94-8.78,.02-12.48-6.21-12.42-11.95,0,0,.02-198.48,.01-203.31-.01-6.35-3.95-6.35-3.99-13.24l.03-59.28c0-13.43-10.67-23.43-23.09-23.34-13.25,.09-22.68,11.54-22.68,22.33v40.25c0,6.9-4.03,6.9-4.03,13.1v178.62c-.05,6.9-4.76,12.06-11.71,12.08-7.83,.02-12.17-6.55-12.17-12.11V103.76c0-2.57,0-9.61-8.53-9.59-7.67,.02-7.67,7.01-7.67,9.59v202.19c0,16.74,12.42,29.83,28.05,29.78,17.81-.05,29.65-14.17,29.78-29.78l.14-178.76c.03-6.24-3.92-6.24-3.92-13.12v-40.18c.09-7.34,6.37-12.37,12.78-12.46,6.46-.09,13.1,4.89,13.1,12.56l-.03,60.1c0,6.88-4,6.88-4,13.33,0,3.49,0,203.7,0,203.7,0,16.74,14.16,29.41,30.9,29.31,15.23-.09,28.8-13.69,28.8-30.43V192.5c0-4.15-.11-14.99-.06-20.91,.06-6.35-3.88-6.35-3.88-12.82V29.53c0-6.19,6.06-14,14.41-14s15.5,6.21,15.5,14.57V181.62c0,7.5-4.03,10.3-4.03,15.83,0,6.17,0,198.97,0,198.97,0,15.95,11.67,32.35,32.39,32.23,20.56-.11,32.25-18.63,32.25-28.77V213.39c0-7.03-8.96-13.68-8.96-21.59V24.86c0-8.36,5.7-15.1,14.06-15.2,6.93-.09,14.64,5.2,14.64,13.56V159.9c0,11.67-10.78,15.16-10.78,26.77v164.38c0,20.24,17.04,34.93,37.28,34.93s35.5-17.33,35.5-37.56V160.98c0-7.87-10.88-17.38-10.88-23.33V72.4c0-8.36,7.45-15.66,15.8-15.66s15.8,7.3,15.8,15.66v44.94c0,4.8-10.78,10.73-10.78,19.13v164.11c0,21.11,16.02,37.31,36.26,37.31s36.26-15.94,36.14-37.3l.11-185.88c0-8.1-6.32-16.26-15.5-16.06Z"/></svg>